<svg xmlns="http://www.w3.org/2000/svg" aria-hidden="true"
    style="position:absolute;width:0;height:0;overflow:hidden">
    <defs>
        <symbol id="facebook" viewBox="0 0 32 32">
            <path fill="#fa4a0c"
                d="M4.702 4.221a1.076 1.076 0 0 0-.371.327l-.002.003-.142.215-.016 11.417c-.011 7.812.002 11.478.04 11.61a.916.916 0 0 0 .485.582c.202.103.341.105 6.369.105h6.162l-.014-4.706-.014-4.707-3.173-.028v-3.678h3.192l.021-1.933c.024-2.203.047-2.36.491-3.267.425-.869 1.003-1.445 1.87-1.869.658-.321 1.221-.45 2.133-.488.686-.029 2.769.061 2.94.126.059.023.073.322.073 1.642v1.613l-1.24.03c-1.357.033-1.618.078-1.995.352a1.088 1.088 0 0 0-.339.433l-.003.007c-.126.279-.13.328-.146 1.82l-.017 1.533h3.642l-.03.2c-.018.11-.115.859-.218 1.666a77.4 77.4 0 0 1-.286 2.24l.07-.599-.03.173h-3.142v9.44h3.397c3.339 0 3.4-.002 3.627-.112a.845.845 0 0 0 .376-.36l.146-.248V4.827l-.123-.214a1.275 1.275 0 0 0-.313-.344l-.003-.002-.194-.133-22.994-.027-.231.114z"
                style="fill:var(--color1, #fa4a0c)" />
        </symbol>
        <symbol id="instagram" viewBox="0 0 32 32">
            <path fill="#fa4a0c"
                d="M8.454 2.727a6.645 6.645 0 0 0-2.027.628c-1.67.819-2.87 2.193-3.433 3.931-.314.972-.3.574-.3 8.713 0 8.144-.015 7.74.303 8.719A6.616 6.616 0 0 0 4.73 27.47l.003.003a6.43 6.43 0 0 0 2.509 1.52l.046.013c.972.314.574.301 8.713.301s7.741.013 8.713-.301a6.722 6.722 0 0 0 4.277-4.24l.014-.047c.318-.979.304-.569.304-8.772V8.401l-.146-.575c-.348-1.368-.965-2.43-1.95-3.355a6.766 6.766 0 0 0-3.709-1.744l-.035-.004c-.563-.07-14.471-.064-15.015.005zm15.321 5.219c.267.121.385.342.385.721 0 .391-.116.6-.406.728-.465.206-.946.068-1.157-.332-.124-.236-.098-.688.052-.891.236-.323.705-.417 1.127-.226zm-6.16 2.045a6.272 6.272 0 0 1 3.156 2.01l.008.009c.953 1.143 1.419 2.447 1.419 3.963v.018a6.032 6.032 0 0 1-1.798 4.304l-.001.001c-1.662 1.652-4.096 2.21-6.345 1.457-.907-.304-1.647-.773-2.36-1.496-.936-.949-1.443-1.929-1.697-3.279-.121-.639-.084-1.897.071-2.475.495-1.841 1.639-3.271 3.239-4.048 1.081-.525 1.647-.647 2.879-.622.763.016.99.04 1.428.156zm-2.074 1.476c-1.721.186-3.159 1.36-3.775 3.082-.161.45-.166.493-.165 1.345.001 1.024.059 1.305.428 2.056.974 1.982 3.302 2.969 5.393 2.286a4.5 4.5 0 0 0 3.008-3.195c.143-.543.157-1.529.03-2.08-.388-1.681-1.768-3.065-3.396-3.405a5.064 5.064 0 0 0-1.543-.087l.021-.002z"
                style="fill:var(--color1, #fa4a0c)" />
        </symbol>
        <symbol id="twitter" viewBox="0 0 31 32">
            <path fill="#fa4a0c"
                d="M20.044 6.018c-1.301.151-2.353.648-3.232 1.527-.652.652-1.055 1.342-1.326 2.269-.167.57-.23 1.621-.132 2.183.034.195.049.366.034.382s-.374-.011-.797-.059c-3.744-.421-7.131-2.19-9.582-5.006l-.318-.365-.208.444c-.376.802-.448 1.15-.448 2.159 0 .764.017.946.12 1.328.307 1.122.973 2.114 1.936 2.882l.182.146-.364-.036c-.446-.043-1.137-.238-1.581-.443a4.107 4.107 0 0 0-.318-.142l-.033-.012c-.046 0-.015.483.056.891.349 1.992 1.81 3.63 3.699 4.148.402.11.389.123-.206.224-.219.037-.633.051-1.05.035l-.689-.027.072.203c.142.406.499 1.02.832 1.436.856 1.07 2.171 1.774 3.585 1.918l.344.036-.299.216c-1.901 1.373-4.383 2.108-6.704 1.986l-.625-.034.286.187c.775.508 2.472 1.246 3.569 1.553 1.527.426 2.773.577 4.449.538 2.386-.056 4.318-.516 6.311-1.503 1.348-.669 2.411-1.429 3.548-2.539a14.976 14.976 0 0 0 3.442-5.176c.707-1.762 1.045-3.384 1.106-5.302l.03-.973.24-.171c.408-.293 1.406-1.292 1.861-1.861.238-.299.427-.55.418-.558s-.276.078-.597.19c-.32.113-.764.252-.988.309-.472.12-1.342.267-1.278.216.024-.02.171-.132.329-.25a5.324 5.324 0 0 0 1.753-2.256l.013-.035.107-.273-.558.283c-.717.363-1.397.622-2.139.814l-.591.153-.327-.306a5.279 5.279 0 0 0-2.371-1.227c-.413-.084-1.252-.14-1.56-.104z"
                style="fill:var(--color1, #fa4a0c)" />
        </symbol>
        <symbol id="hamburger" viewBox="0 0 40 32">
            <path fill="#737373" opacity="0.6" style="fill: var(--color1, #737373)"
                d="M0.248 2.667c0-1.473 1.194-2.667 2.667-2.667h34.419c1.473 0 2.667 1.194 2.667 2.667s-1.194 2.667-2.667 2.667h-34.419c-1.473 0-2.667-1.194-2.667-2.667zM0 16c0-1.473 1.194-2.667 2.667-2.667h34.667c1.473 0 2.667 1.194 2.667 2.667s-1.194 2.667-2.667 2.667h-34.667c-1.473 0-2.667-1.194-2.667-2.667zM0 29.333c0-1.473 1.194-2.667 2.667-2.667h34.667c1.473 0 2.667 1.194 2.667 2.667s-1.194 2.667-2.667 2.667h-34.667c-1.473 0-2.667-1.194-2.667-2.667z"></path>
        </symbol>
        <symbol id="close" viewBox="0 0 20 20">
            <path fill="#737373" opacity="0.6"
                d="M14.348 14.849c-0.469 0.469-1.229 0.469-1.697 0l-2.651-3.030-2.651 3.029c-0.469 0.469-1.229 0.469-1.697 0-0.469-0.469-0.469-1.229 0-1.697l2.758-3.15-2.759-3.152c-0.469-0.469-0.469-1.228 0-1.697s1.228-0.469 1.697 0l2.652 3.031 2.651-3.031c0.469-0.469 1.228-0.469 1.697 0s0.469 1.229 0 1.697l-2.758 3.152 2.758 3.15c0.469 0.469 0.469 1.229 0 1.698z"></path>
        </symbol>
    </defs>
</svg>